<svg xmlns="http://www.w3.org/2000/svg" width="21.933" height="22" viewBox="0 0 21.933 22">
  <defs>
    <style>
      .cls-1 {
        fill: #4a8bfd;
      }

      .cls-2 {
        fill: #27c59a;
      }

      .cls-3 {
        fill: #ffa355;
      }

      .cls-4 {
        fill: #1ab3ff;
      }
    </style>
  </defs>
  <g id="组_20380" data-name="组 20380" transform="translate(-232.019 -200)">
    <g id="组_20363" data-name="组 20363" transform="translate(232.019 200)">
      <path id="路径_11117" data-name="路径 11117" class="cls-1" d="M62,95.081V89.814a1.794,1.794,0,0,1,1.794-1.794h5.268a1.794,1.794,0,0,1,1.794,1.794v5.268a1.794,1.794,0,0,1-1.794,1.794H63.794A1.794,1.794,0,0,1,62,95.081Z" transform="translate(-62 -86.186)"/>
      <path id="路径_11118" data-name="路径 11118" class="cls-2" d="M62,549.552v-5.268a1.794,1.794,0,0,1,1.794-1.794h5.268a1.794,1.794,0,0,1,1.794,1.794v5.271a1.791,1.791,0,0,1-1.791,1.791H63.794A1.794,1.794,0,0,1,62,549.552Z" transform="translate(-62 -529.346)"/>
      <path id="路径_11119" data-name="路径 11119" class="cls-3" d="M0,7.062V1.794A1.794,1.794,0,0,1,1.794,0H7.061A1.794,1.794,0,0,1,8.855,1.794V7.062A1.794,1.794,0,0,1,7.061,8.855H1.794A1.794,1.794,0,0,1,0,7.062Z" transform="translate(9.41 6.262) rotate(-45)"/>
      <path id="路径_14436" data-name="路径 14436" class="cls-4" d="M509.02,95.081V89.814a1.794,1.794,0,0,1,1.794-1.794h5.268a1.794,1.794,0,0,1,1.794,1.794v5.268a1.794,1.794,0,0,1-1.794,1.794h-5.268A1.794,1.794,0,0,1,509.02,95.081Z" transform="translate(-497.774 -74.875)"/>
    </g>
  </g>
</svg>
