<svg xmlns="http://www.w3.org/2000/svg" width="12" height="12" viewBox="0 0 12 12">
  <defs>
    <style>
      .cls-1 {
        fill: #4769b3;
      }
    </style>
  </defs>
  <path id="delete" class="cls-1" d="M3.286,4.571H2.429a.429.429,0,1,1,0-.857H5.857V2.429A.412.412,0,0,1,6.286,2H9.714a.412.412,0,0,1,.429.429V3.714h3.429a.429.429,0,1,1,0,.857h-.857v9a.412.412,0,0,1-.429.429H3.714a.412.412,0,0,1-.429-.429Zm6-.857V2.857H6.714v.857ZM4.143,13.143h7.714V4.571H4.143Zm2.571-1.714A.412.412,0,0,1,6.286,11V6.714a.429.429,0,1,1,.857,0V11a.412.412,0,0,1-.429.429Zm2.571,0A.412.412,0,0,1,8.857,11V6.714a.429.429,0,1,1,.857,0V11a.412.412,0,0,1-.429.429Z" transform="translate(-2 -2)"/>
</svg>
