<svg xmlns="http://www.w3.org/2000/svg" width="10.6" height="10.6" viewBox="0 0 10.6 10.6">
  <defs>
    <style>
      .cls-1 {
        fill: #4769b3;
      }
    </style>
  </defs>
  <path id="edit-outline" class="cls-1" d="M13.422,8.711a.428.428,0,1,1,.857,0v4.711a.412.412,0,0,1-.428.428H4.428A.412.412,0,0,1,4,13.422V4a.412.412,0,0,1,.428-.428H9.139a.428.428,0,1,1,0,.857H4.857v8.566h8.566Zm-4.845.562.709-.094,4.336-4.35a.426.426,0,0,0-.6-.6L8.671,8.564Zm5.648-5.648a1.231,1.231,0,0,1,.375.9,1.277,1.277,0,0,1-.375.917L9.8,9.876a.473.473,0,0,1-.254.134l-1.405.2a.4.4,0,0,1-.361-.127.43.43,0,0,1-.12-.368l.2-1.405a.35.35,0,0,1,.12-.241l4.443-4.443a1.276,1.276,0,0,1,1.806,0Z" transform="translate(-4 -3.251)"/>
</svg>
