<svg xmlns="http://www.w3.org/2000/svg" width="16" height="16" viewBox="0 0 16 16">
  <defs>
    <style>
      .cls-1 {
        fill: #f74;
      }

      .cls-2 {
        fill: #fa4;
      }

      .cls-3 {
        fill: #fff;
      }
    </style>
  </defs>
  <g id="tuijian-2" transform="translate(-0.933 -0.933)">
    <path id="路径_14891" data-name="路径 14891" class="cls-1" d="M136.533,273.672a.61.61,0,0,1,.615-.605h12.308a.61.61,0,0,1,.615.605v7.753a1.207,1.207,0,0,1-.641,1.063l-4.949,2.654a2.5,2.5,0,0,1-2.357,0l-4.95-2.653a1.207,1.207,0,0,1-.641-1.063Z" transform="translate(-134.369 -268.503)"/>
    <path id="路径_14892" data-name="路径 14892" class="cls-2" d="M68.267,69.477a1.221,1.221,0,0,1,1.231-1.21H83.036a1.221,1.221,0,0,1,1.231,1.21v2.082a.6.6,0,0,1-.293.516l-6.74,4.078a1.873,1.873,0,0,1-1.935,0l-6.74-4.079a.6.6,0,0,1-.293-.516Z" transform="translate(-67.333 -67.333)"/>
    <path id="路径_14893" data-name="路径 14893" class="cls-3" d="M308.954,329.967a.316.316,0,0,1,.566,0l.909,1.872a.314.314,0,0,0,.242.173l2.092.271a.312.312,0,0,1,.257.21.305.305,0,0,1-.082.319l-1.531,1.428a.305.305,0,0,0-.093.28l.385,2.04a.306.306,0,0,1-.124.305.318.318,0,0,1-.334.022l-1.854-.989a.318.318,0,0,0-.3,0l-1.854.989a.318.318,0,0,1-.334-.022.306.306,0,0,1-.124-.305l.384-2.04a.306.306,0,0,0-.092-.28l-1.53-1.428a.305.305,0,0,1-.082-.319.312.312,0,0,1,.257-.211l2.092-.271a.313.313,0,0,0,.242-.173l.909-1.872Z" transform="translate(-300.304 -324.291)"/>
  </g>
</svg>
